<?xml version="1.0" encoding="UTF-8"?>
<svg id="Capa_2" data-name="Capa 2" xmlns="http://www.w3.org/2000/svg" xmlns:xlink="http://www.w3.org/1999/xlink" viewBox="0 0 71.61 71.61">
  <defs>
    <style>
      .cls-1 {
        fill: #dea600;
      }

      .cls-2 {
        fill: #dfa700;
      }

      .cls-3 {
        fill: #d8a200;
      }

      .cls-4 {
        fill: #e5aa00;
      }

      .cls-5 {
        fill: #fff;
      }

      .cls-6 {
        fill: #f3b400;
      }

      .cls-7 {
        fill: #cb9900;
      }

      .cls-8 {
        fill: #d09c00;
      }

      .cls-9 {
        fill: #e6ab00;
      }

      .cls-10 {
        fill: #f8b800;
      }

      .cls-11 {
        fill: #ecaf00;
      }

      .cls-12 {
        fill: #f0b200;
      }

      .cls-13 {
        fill: #ce9b00;
      }

      .cls-14 {
        fill: #f5b600;
      }

      .cls-15 {
        fill: #f1b300;
      }

      .cls-16 {
        fill: #e2a800;
      }

      .cls-17 {
        fill: #d6a000;
      }

      .cls-18 {
        fill: #cd9a00;
      }

      .cls-19 {
        fill: #e1a800;
      }

      .cls-20 {
        fill: #dfa600;
      }

      .cls-21 {
        fill: #e8ad00;
      }

      .cls-22 {
        fill: #e4aa00;
      }

      .cls-23 {
        fill: #e0a700;
      }

      .cls-24 {
        fill: #d9a200;
      }

      .cls-25 {
        fill: #dba400;
      }

      .cls-26 {
        fill: #f2b300;
      }

      .cls-27 {
        fill: #d49f00;
      }

      .cls-28 {
        fill: #c90;
      }

      .cls-29 {
        fill: #ca9800;
      }

      .cls-30 {
        fill: #daa300;
      }

      .cls-31 {
        fill: #eeb100;
      }

      .cls-32 {
        fill: #f4b500;
      }

      .cls-33 {
        fill: #edb000;
      }

      .cls-34 {
        fill: #fab900;
      }

      .cls-35 {
        fill: #f6b600;
      }

      .cls-36 {
        fill: #fbba00;
      }

      .cls-37 {
        fill: #efb100;
      }

      .cls-38 {
        fill: #d29e00;
      }

      .cls-39, .cls-40, .cls-41 {
        fill: none;
      }

      .cls-42 {
        fill: #f7b700;
      }

      .cls-43 {
        fill: #d8a100;
      }

      .cls-44 {
        fill: #22384b;
      }

      .cls-45 {
        fill: #d19d00;
      }

      .cls-46 {
        fill: #f9b800;
      }

      .cls-40 {
        clip-path: url(#clippath);
      }

      .cls-47 {
        fill: #e6ac00;
      }

      .cls-48 {
        fill: #e7ac00;
      }

      .cls-49 {
        fill: #eaae00;
      }

      .cls-41 {
        clip-path: url(#clippath-1);
      }

      .cls-50 {
        fill: #cf9b00;
      }

      .cls-51 {
        fill: #e2a900;
      }

      .cls-52 {
        fill: #e9ad00;
      }

      .cls-53 {
        fill: #dda500;
      }

      .cls-54 {
        fill: #d7a100;
      }

      .cls-55 {
        fill: #d29d00;
      }

      .cls-56 {
        fill: #d39e00;
      }

      .cls-57 {
        fill: #d59f00;
      }

      .cls-58 {
        fill: #e3a900;
      }

      .cls-59 {
        fill: #dca500;
      }

      .cls-60 {
        fill: #ebaf00;
      }

      .cls-61 {
        fill: #dca400;
      }
    </style>
    <clipPath id="clippath">
      <path class="cls-39" d="m12.4,47.51h0c5,7.35,13.43,12.18,22.96,12.18,3.98,0,7.76-.85,11.19-2.37.03-.02.04-.03.07-.05.1-.08.19-.15.29-.23.11-.08.21-.17.32-.25.1-.08.19-.16.29-.23.1-.08.21-.18.31-.26.09-.08.18-.15.26-.23l.02-.02.05-.04c.08-.08.17-.15.25-.23.07-.07.14-.13.21-.2l.07-.06.08-.07c.08-.07.14-.13.22-.21l.19-.19.08-.08.08-.08c.07-.07.13-.13.19-.2.07-.07.13-.13.18-.2l.08-.09h0c-4.36,2.52-9.34,3.88-14.4,3.88-9.49,0-18.37-4.7-23.75-12.56-.02-.02-.03-.04-.04-.06-.8-1.18-1.47-2.37-2.05-3.54.65,1.71,1.58,3.52,2.84,5.4m31.7-13.29h0c.03.7.61,1.36,1.43,1.29l4.25-.32c.18-.47.35-.96.5-1.44l-4.65.34h-.18c-.5,0-.97-.16-1.36-.44v.56h0Z"/>
    </clipPath>
    <clipPath id="clippath-1">
      <path class="cls-39" d="m12.4,47.51h0c5,7.35,13.43,12.18,22.96,12.18,3.98,0,7.76-.85,11.19-2.37.03-.02.04-.03.07-.05.1-.08.19-.15.29-.23.11-.08.21-.17.32-.25.1-.08.19-.16.29-.23.1-.08.21-.18.31-.26.09-.08.18-.15.26-.23l.02-.02.05-.04c.08-.08.17-.15.25-.23.07-.07.14-.13.21-.2l.07-.06.08-.07c.08-.07.14-.13.22-.21l.19-.19.08-.08.08-.08c.07-.07.13-.13.19-.2.07-.07.13-.13.18-.2l.08-.09h0c-4.36,2.52-9.34,3.88-14.4,3.88-9.49,0-18.37-4.7-23.75-12.56-.02-.02-.03-.04-.04-.06-.8-1.18-1.47-2.37-2.05-3.54.65,1.71,1.58,3.52,2.84,5.4m31.7-13.29h0c.03.7.61,1.36,1.43,1.29l4.25-.32c.18-.47.35-.96.5-1.44l-4.65.34h-.18c-.5,0-.97-.16-1.36-.44v.56h0Z"/>
    </clipPath>
  </defs>
  <g id="Capa_2-2" data-name="Capa 2">
    <rect class="cls-5" x="0" y="0" width="71.61" height="71.61" rx="35.8" ry="35.8"/>
    <g>
      <g>
        <path class="cls-36" d="m45.45,34.11c-.88,0-1.67-.49-2.07-1.28-.44-.86-.32-1.84.3-2.57l6.74-7.9s-.04-.05-.07-.07l-.11-.13-.18-.2c-.23-.25-.46-.5-.73-.78-.02-.03-.04-.04-.06-.07-.02-.02-.03-.03-.04-.04-.88-.89-1.84-1.72-2.85-2.47l-.03-.02c-.33-.23-.65-.47-.99-.69l-.03-.02-.03-.03c-.33-.22-.66-.42-.98-.61l-.09-.05c-.33-.19-.66-.38-.99-.55l-.08-.04h-.03c-.33-.18-.67-.34-1.01-.5l-.13-.05c-.33-.15-.67-.29-1.02-.44l-.06-.03-.08-.03c-.33-.13-.67-.25-1.03-.38l-.07-.03-.08-.03c-.34-.11-.68-.22-1.05-.33l-.08-.03-.06-.02c-.36-.1-.74-.2-1.12-.29l-.05-.02h-.03c-.79-.18-1.59-.32-2.4-.41-8.27.26-14.99,7.19-14.99,15.47s6.94,15.48,15.48,15.48c6.89,0,13.02-4.67,14.89-11.24l-4.65.34h-.18m-10.06,24.18c-9.49,0-18.37-4.69-23.75-12.56-.02-.03-.03-.04-.04-.07-1.85-2.75-3.1-5.48-3.74-8.16v.53c0,6.44,2.52,12.5,7.09,17.07,4.57,4.57,10.64,7.08,17.09,7.08h.3c.17,0,.34,0,.5,0,.08,0,.16,0,.23,0h.22c.11,0,.23,0,.34-.03l.27-.03h.11l.07-.02c.12,0,.23-.02.34-.03.1,0,.2-.03.3-.03h.1c.13-.03.25-.04.38-.05.13-.02.24-.03.37-.05h.02c.13-.03.27-.04.39-.07.13-.03.26-.04.39-.07.13-.03.26-.04.39-.07.13-.03.26-.05.39-.08.13-.03.25-.06.38-.08.13-.03.26-.06.39-.09.13-.03.25-.07.38-.1.13-.03.25-.07.38-.1.12-.03.23-.07.37-.11h.03c.12-.04.23-.08.35-.12.1-.03.2-.07.3-.1l.07-.03.08-.03c.1-.03.2-.07.29-.1.09-.03.18-.07.27-.1l.08-.03.1-.03c.09-.03.18-.07.27-.1.08-.03.17-.07.25-.1l.11-.04.11-.04c.08-.03.17-.07.25-.1.08-.03.16-.07.24-.11l.12-.05c.23-.1.46-.21.69-.33l.1-.05c.08-.03.15-.07.23-.11.08-.04.17-.09.26-.13l.1-.06.1-.05c.08-.03.15-.08.23-.12l.28-.16.07-.04.07-.03c.08-.05.17-.1.26-.15.1-.06.2-.13.31-.18l.03-.03.03-.03c.09-.06.18-.12.28-.17.11-.08.23-.15.34-.23.1-.07.2-.13.3-.2.11-.08.23-.16.34-.23l.3-.21c.11-.08.22-.16.33-.24.1-.08.2-.15.29-.23.1-.08.21-.17.32-.25.1-.08.19-.16.29-.23.1-.08.2-.17.31-.26.08-.08.18-.15.26-.23l.02-.02.05-.04c.08-.08.17-.15.25-.23.07-.07.14-.13.21-.2l.07-.06.08-.07c.07-.07.14-.13.22-.2l.19-.19.08-.08.08-.08.2-.2c.07-.07.13-.13.18-.2l.08-.09h0c-4.36,2.52-9.34,3.87-14.4,3.87"/>
        <path class="cls-44" d="m69.08,35.87c-.05.05-.13.1-.23.1-.04,0-.09,0-.13-.03l-5.6-2.37c-.13-.05-.25-.08-.39-.08-.17,0-.34.04-.48.12-.27.14-.44.4-.5.7-1.02,5.65-3.93,10.93-8.18,14.86h0v.02h0l-.11.1c-4.95,4.51-11.35,7.01-18.03,7.01-8.85,0-17.14-4.39-22.14-11.75,0-.02-.03-.03-.03-.05-9.38-14.06.55-23.19,5.24-26.46l.04-.03.03-.03.05-.03.11-.08h0c.69-.47,1.16-.74,1.28-.81.02,0,.03-.02.05-.03,2-1.14,4.15-1.99,6.39-2.52-1.28.77-2.48,1.71-3.53,2.8-3.2,3.29-4.96,7.61-4.96,12.18,0,9.63,7.84,17.48,17.47,17.48,8.35,0,15.57-5.95,17.15-14.14.06-.3-.03-.62-.23-.85-.19-.21-.46-.34-.75-.34h-.08l-6.01.44h-.03c-.18,0-.27-.12-.3-.18-.03-.06-.09-.22.04-.38l7.28-8.55,7.6-8.92c.07-.08.16-.12.25-.12h.06c.12.02.21.1.26.21l8.49,21.32c.08.18-.03.32-.08.37"/>
      </g>
      <g class="cls-40">
        <g>
          <rect class="cls-36" x="9.56" y="42.11" width=".44" height="17.58"/>
          <rect class="cls-34" x="9.99" y="42.11" width=".44" height="17.58"/>
          <rect class="cls-34" x="10.42" y="42.11" width=".44" height="17.58"/>
          <rect class="cls-46" x="10.86" y="42.11" width=".44" height="17.58"/>
          <rect class="cls-10" x="11.29" y="42.11" width=".44" height="17.58"/>
          <rect class="cls-42" x="11.72" y="42.11" width=".44" height="17.58"/>
          <rect class="cls-42" x="12.16" y="42.11" width=".44" height="17.58"/>
          <rect class="cls-35" x="12.59" y="42.11" width=".44" height="17.58"/>
          <rect class="cls-14" x="13.03" y="42.11" width=".44" height="17.58"/>
          <rect class="cls-32" x="13.46" y="42.11" width=".44" height="17.58"/>
          <rect class="cls-32" x="13.89" y="42.11" width=".44" height="17.58"/>
          <rect class="cls-6" x="14.33" y="42.11" width=".44" height="17.58"/>
          <rect class="cls-26" x="14.76" y="42.11" width=".44" height="17.58"/>
          <rect class="cls-15" x="15.19" y="42.11" width=".44" height="17.58"/>
          <rect class="cls-12" x="15.63" y="42.11" width=".44" height="17.58"/>
          <rect class="cls-12" x="16.06" y="42.11" width=".44" height="17.58"/>
          <rect class="cls-37" x="16.49" y="42.11" width=".44" height="17.58"/>
          <rect class="cls-31" x="16.93" y="42.11" width=".44" height="17.58"/>
          <rect class="cls-33" x="17.36" y="42.11" width=".44" height="17.58"/>
          <rect class="cls-33" x="17.79" y="42.11" width=".44" height="17.58"/>
          <rect class="cls-11" x="18.23" y="42.11" width=".44" height="17.58"/>
          <rect class="cls-60" x="18.66" y="42.11" width=".44" height="17.58"/>
          <rect class="cls-49" x="19.09" y="42.11" width=".44" height="17.58"/>
          <rect class="cls-49" x="19.53" y="42.11" width=".44" height="17.58"/>
          <rect class="cls-52" x="19.97" y="42.11" width=".44" height="17.58"/>
          <rect class="cls-21" x="20.39" y="42.11" width=".44" height="17.58"/>
          <rect class="cls-48" x="20.83" y="42.11" width=".44" height="17.58"/>
          <rect class="cls-47" x="21.27" y="42.11" width=".44" height="17.58"/>
          <rect class="cls-9" x="21.69" y="42.11" width=".44" height="17.58"/>
          <rect class="cls-4" x="22.13" y="42.11" width=".44" height="17.58"/>
          <rect class="cls-22" x="22.57" y="42.11" width=".44" height="17.58"/>
          <rect class="cls-58" x="23" y="42.11" width=".44" height="17.58"/>
          <rect class="cls-51" x="23.43" y="42.11" width=".44" height="17.58"/>
          <rect class="cls-16" x="23.87" y="42.11" width=".44" height="17.58"/>
          <rect class="cls-19" x="24.3" y="42.11" width=".44" height="17.58"/>
          <rect class="cls-23" x="24.73" y="42.11" width=".44" height="17.58"/>
          <rect class="cls-2" x="25.17" y="42.11" width=".44" height="17.58"/>
          <rect class="cls-20" x="25.6" y="42.11" width=".44" height="17.58"/>
          <rect class="cls-1" x="26.03" y="42.11" width=".44" height="17.58"/>
          <rect class="cls-53" x="26.47" y="42.11" width=".44" height="17.58"/>
          <rect class="cls-59" x="26.9" y="42.11" width=".44" height="17.58"/>
          <rect class="cls-61" x="27.33" y="42.11" width=".44" height="17.58"/>
          <rect class="cls-25" x="27.77" y="42.11" width=".44" height="17.58"/>
          <rect class="cls-30" x="28.2" y="42.11" width=".44" height="17.58"/>
          <rect class="cls-24" x="28.63" y="42.11" width=".44" height="17.58"/>
          <rect class="cls-3" x="29.07" y="42.11" width=".44" height="17.58"/>
          <rect class="cls-43" x="29.5" y="42.11" width=".44" height="17.58"/>
          <rect class="cls-54" x="29.93" y="42.11" width=".44" height="17.58"/>
          <rect class="cls-17" x="30.37" y="42.11" width=".44" height="17.58"/>
          <rect class="cls-17" x="30.8" y="42.11" width=".44" height="17.58"/>
          <rect class="cls-57" x="31.24" y="42.11" width=".44" height="17.58"/>
          <rect class="cls-27" x="31.67" y="42.11" width=".44" height="17.58"/>
          <rect class="cls-56" x="32.1" y="42.11" width=".44" height="17.58"/>
          <rect class="cls-38" x="32.54" y="42.11" width=".44" height="17.58"/>
          <rect class="cls-55" x="32.97" y="42.11" width=".44" height="17.58"/>
          <rect class="cls-45" x="33.4" y="42.11" width=".44" height="17.58"/>
          <rect class="cls-8" x="33.84" y="42.11" width=".44" height="17.58"/>
          <rect class="cls-50" x="34.27" y="42.11" width=".44" height="17.58"/>
          <rect class="cls-13" x="34.7" y="42.11" width=".44" height="17.58"/>
          <rect class="cls-18" x="35.14" y="42.11" width=".44" height="17.58"/>
          <rect class="cls-18" x="35.57" y="42.11" width=".44" height="17.58"/>
          <rect class="cls-28" x="36" y="42.11" width=".44" height="17.58"/>
          <rect class="cls-7" x="36.44" y="42.11" width=".44" height="17.58"/>
          <rect class="cls-29" x="36.87" y="42.11" width=".44" height="17.58"/>
          <rect class="cls-29" x="37.3" y="42.11" width="12.49" height="17.58"/>
          <rect class="cls-29" x="44.09" y="33.66" width="6.19" height="1.92"/>
        </g>
      </g>
      <path class="cls-5" d="m45.65,57.97c-.1.07-.2.13-.3.2.1-.07.2-.13.3-.2.11-.08.23-.16.34-.23-.11.08-.22.16-.34.23"/>
      <g class="cls-41">
        <g>
          <rect class="cls-36" x="9.56" y="42.11" width=".44" height="17.58"/>
          <rect class="cls-34" x="9.99" y="42.11" width=".44" height="17.58"/>
          <rect class="cls-34" x="10.42" y="42.11" width=".44" height="17.58"/>
          <rect class="cls-46" x="10.86" y="42.11" width=".44" height="17.58"/>
          <rect class="cls-10" x="11.29" y="42.11" width=".44" height="17.58"/>
          <rect class="cls-42" x="11.72" y="42.11" width=".44" height="17.58"/>
          <rect class="cls-42" x="12.16" y="42.11" width=".44" height="17.58"/>
          <rect class="cls-35" x="12.59" y="42.11" width=".44" height="17.58"/>
          <rect class="cls-14" x="13.03" y="42.11" width=".44" height="17.58"/>
          <rect class="cls-32" x="13.46" y="42.11" width=".44" height="17.58"/>
          <rect class="cls-32" x="13.89" y="42.11" width=".44" height="17.58"/>
          <rect class="cls-6" x="14.33" y="42.11" width=".44" height="17.58"/>
          <rect class="cls-26" x="14.76" y="42.11" width=".44" height="17.58"/>
          <rect class="cls-15" x="15.19" y="42.11" width=".44" height="17.58"/>
          <rect class="cls-12" x="15.63" y="42.11" width=".44" height="17.58"/>
          <rect class="cls-12" x="16.06" y="42.11" width=".44" height="17.58"/>
          <rect class="cls-37" x="16.49" y="42.11" width=".44" height="17.58"/>
          <rect class="cls-31" x="16.93" y="42.11" width=".44" height="17.58"/>
          <rect class="cls-33" x="17.36" y="42.11" width=".44" height="17.58"/>
          <rect class="cls-33" x="17.79" y="42.11" width=".44" height="17.58"/>
          <rect class="cls-11" x="18.23" y="42.11" width=".44" height="17.58"/>
          <rect class="cls-60" x="18.66" y="42.11" width=".44" height="17.58"/>
          <rect class="cls-49" x="19.09" y="42.11" width=".44" height="17.58"/>
          <rect class="cls-49" x="19.53" y="42.11" width=".44" height="17.58"/>
          <rect class="cls-52" x="19.97" y="42.11" width=".44" height="17.58"/>
          <rect class="cls-21" x="20.39" y="42.11" width=".44" height="17.58"/>
          <rect class="cls-48" x="20.83" y="42.11" width=".44" height="17.58"/>
          <rect class="cls-47" x="21.27" y="42.11" width=".44" height="17.58"/>
          <rect class="cls-9" x="21.69" y="42.11" width=".44" height="17.58"/>
          <rect class="cls-4" x="22.13" y="42.11" width=".44" height="17.58"/>
          <rect class="cls-22" x="22.57" y="42.11" width=".44" height="17.58"/>
          <rect class="cls-58" x="23" y="42.11" width=".44" height="17.58"/>
          <rect class="cls-51" x="23.43" y="42.11" width=".44" height="17.58"/>
          <rect class="cls-16" x="23.87" y="42.11" width=".44" height="17.58"/>
          <rect class="cls-19" x="24.3" y="42.11" width=".44" height="17.58"/>
          <rect class="cls-23" x="24.73" y="42.11" width=".44" height="17.58"/>
          <rect class="cls-2" x="25.17" y="42.11" width=".44" height="17.58"/>
          <rect class="cls-20" x="25.6" y="42.11" width=".44" height="17.58"/>
          <rect class="cls-1" x="26.03" y="42.11" width=".44" height="17.58"/>
          <rect class="cls-53" x="26.47" y="42.11" width=".44" height="17.58"/>
          <rect class="cls-59" x="26.9" y="42.11" width=".44" height="17.58"/>
          <rect class="cls-61" x="27.33" y="42.11" width=".44" height="17.58"/>
          <rect class="cls-25" x="27.77" y="42.11" width=".44" height="17.58"/>
          <rect class="cls-30" x="28.2" y="42.11" width=".44" height="17.58"/>
          <rect class="cls-24" x="28.63" y="42.11" width=".44" height="17.58"/>
          <rect class="cls-3" x="29.07" y="42.11" width=".44" height="17.58"/>
          <rect class="cls-43" x="29.5" y="42.11" width=".44" height="17.58"/>
          <rect class="cls-54" x="29.93" y="42.11" width=".44" height="17.58"/>
          <rect class="cls-17" x="30.37" y="42.11" width=".44" height="17.58"/>
          <rect class="cls-17" x="30.8" y="42.11" width=".44" height="17.58"/>
          <rect class="cls-57" x="31.24" y="42.11" width=".44" height="17.58"/>
          <rect class="cls-27" x="31.67" y="42.11" width=".44" height="17.58"/>
          <rect class="cls-56" x="32.1" y="42.11" width=".44" height="17.58"/>
          <rect class="cls-38" x="32.54" y="42.11" width=".44" height="17.58"/>
          <rect class="cls-55" x="32.97" y="42.11" width=".44" height="17.58"/>
          <rect class="cls-45" x="33.4" y="42.11" width=".44" height="17.58"/>
          <rect class="cls-8" x="33.84" y="42.11" width=".44" height="17.58"/>
          <rect class="cls-50" x="34.27" y="42.11" width=".44" height="17.58"/>
          <rect class="cls-13" x="34.7" y="42.11" width=".44" height="17.58"/>
          <rect class="cls-18" x="35.14" y="42.11" width=".44" height="17.58"/>
          <rect class="cls-18" x="35.57" y="42.11" width=".44" height="17.58"/>
          <rect class="cls-28" x="36" y="42.11" width=".44" height="17.58"/>
          <rect class="cls-7" x="36.44" y="42.11" width=".44" height="17.58"/>
          <rect class="cls-29" x="36.87" y="42.11" width=".44" height="17.58"/>
          <rect class="cls-29" x="37.3" y="42.11" width="12.49" height="17.58"/>
          <rect class="cls-29" x="44.09" y="33.66" width="6.19" height="1.92"/>
        </g>
      </g>
      <path class="cls-5" d="m45.65,57.97c-.1.07-.2.13-.3.2.1-.07.2-.13.3-.2.11-.08.23-.16.34-.23-.11.08-.22.16-.34.23"/>
    </g>
  </g>
</svg>